<svg xmlns="http://www.w3.org/2000/svg" viewBox="0 0 102 102"><defs><style>.cls-1{fill:#960000;}.cls-2{fill:#fff;fill-rule:evenodd;}</style></defs><title>Asset 1</title><g id="Layer_2" data-name="Layer 2"><g id="Layer_1-2" data-name="Layer 1"><circle class="cls-1" cx="51" cy="51" r="51"/><path class="cls-2" d="M13.46,52.87C14.2,60,20.79,65.22,28.14,65.22h4.24L45.46,76.67a1.66,1.66,0,0,0,2.76-1.2v-48a1.66,1.66,0,0,0-2.76-1.2L32.37,37.69h-4.9a13.93,13.93,0,0,0-14,15.18ZM62.65,61a11.62,11.62,0,0,0-.3-20.64c-1.22-.55.64-5.26,1.86-4.72a16.9,16.9,0,0,1,.43,30,2.28,2.28,0,0,1-1,.23c-.91,0-2.2-4.29-1-4.88Z"/><path class="cls-2" d="M66.49,77.22A29.08,29.08,0,0,0,84.24,50.85c0-11.68-7.31-22.18-18.61-26.73-1.31-.52.68-5,2-4.51,13.22,5.32,21.76,17.58,21.76,31.24,0,13.2-8.14,25.3-20.74,30.82a2.59,2.59,0,0,1-1.08.23c-1,0-2.37-4.12-1.08-4.68Z"/></g></g></svg>